Simulation
nRows=24
nColumns=15
endheader
time  TH_x TH_y TH_z SC_y  SC_z  SC_x  AC_y  AC_z  AC_x  GH_y  GH_z  GH_yy  EL_x  PS_y
1.55  0.000000  0.000000  0.000000  -32.74229386574509  6.776935241604795  29.633524600527153  53.818341234348004  5.077169084543125  -10.534656187122224  22.691914331635154  54.62670869203821  -20.99417066699146  17.929974499702258  0.000000
1.581  0.000000  0.000000  0.000000  -33.180001282464595  7.10027500353084  30.3791209271634  53.89806384405978  5.071272280906019  -10.240913546916538  22.47689845264822  55.08027198581868  -20.977401732486783  17.898069237944025  0.000000
1.612  0.000000  0.000000  0.000000  -33.56772051780488  7.3790155954258285  30.9433966241963  53.992659312808975  5.08574444812562  -9.91337126705757  22.229837853533336  55.51236068195134  -20.901577753147134  17.874594732958613  0.000000
1.643  0.000000  0.000000  0.000000  -33.90302727481103  7.589611653162204  31.350072657690532  54.097916986840595  5.1359225628106655  -9.593719646936634  21.97001379688224  55.90327827887576  -20.80965995071991  17.87384862199424  0.000000
1.674  0.000000  0.000000  0.000000  -34.20499045584778  7.734383918362798  31.638442982583705  54.2101308783357  5.220461684902999  -9.301963320413822  21.73407952883288  56.216899184495375  -20.733847458111487  17.896197667023344  0.000000
1.705  0.000000  0.000000  0.000000  -34.496150696966474  7.831234637385988  31.844620098754536  54.32266872898052  5.326788124995013  -9.039819349400858  21.563974870448  56.41599022659673  -20.68187351964332  17.931146357118884  0.000000
1.736  0.000000  0.000000  0.000000  -34.779517285692044  7.894716143446344  31.990180375833177  54.426357908173806  5.440202857086148  -8.81475633030228  21.491489043539737  56.477066030559534  -20.651818384566056  17.968211268918857  0.000000
1.767  0.000000  0.000000  0.000000  -35.03055633999431  7.929426030707884  32.07650056386242  54.50695152542225  5.541355446962172  -8.64684343815191  21.52786761055959  56.40239369021803  -20.639820579353817  18.00157599012981  0.000000
1.798  0.000000  0.000000  0.000000  -35.2065596356683  7.934405395910515  32.08988897607943  54.54800319160923  5.606612221148912  -8.567052422972733  21.665587339913422  56.21639444436714  -20.646224287233085  18.02837531642328  0.000000
1.829  0.000000  0.000000  0.000000  -35.26859319992874  7.905519960841529  32.01663243077894  54.53472020450549  5.616987521550557  -8.602728055648225  21.890467829286724  55.94546813532974  -20.67648155994791  18.047056208657352  0.000000
1.8599999999999999  0.000000  0.000000  0.000000  -35.20102986987633  7.835690098621918  31.856322559732167  54.468935165766375  5.564335205698081  -8.765009527936131  22.185010112469193  55.59997391513196  -20.75290227315746  18.056799526062903  0.000000
1.891  0.000000  0.000000  0.000000  -35.01372106707848  7.712928115958216  31.62316218601096  54.37019430130868  5.455879777655827  -9.043443559730644  22.529795060706544  55.16837753215363  -20.911185793556513  18.058558622271605  0.000000
1.922  0.000000  0.000000  0.000000  -34.73081000807017  7.525250437695627  31.33450863928685  54.26800247968719  5.3063696868147545  -9.41473694453163  22.904483017550852  54.63114868195671  -21.186754253422997  18.055078462334702  0.000000
1.953  0.000000  0.000000  0.000000  -34.381325164119865  7.269663149287523  30.99496544743044  54.18660941811985  5.126848877671648  -9.84595685155536  23.291458914975237  53.97701577566683  -21.583331371260343  18.051852237402876  0.000000
1.984  0.000000  0.000000  0.000000  -33.997647806247954  6.958565673113903  30.586732469600275  54.13966203891582  4.916266190317279  -10.296240129810645  23.679373695913732  53.21445574303251  -22.06041773516175  18.056869148458137  0.000000
2.015  0.000000  0.000000  0.000000  -33.61356857087142  6.61720346080869  30.071403905563187  54.13032322762906  4.6675808313881895  -10.713220355013572  24.058759291297303  52.367321183725394  -22.543078985378738  18.080108729303262  0.000000
2.046  0.000000  0.000000  0.000000  -33.25094409326533  6.267189073654821  29.41205374426451  54.15205512654391  4.385990724102398  -11.053249319735619  24.424122994134567  51.4586391995677  -22.961943595324314  18.131097934028944  0.000000
2.077  0.000000  0.000000  0.000000  -32.91430304727202  5.915278879476439  28.59282834416796  54.192865497868674  4.093819864471235  -11.291209348765012  24.769639261044308  50.498999130521895  -23.279449504744804  18.212165930021154  0.000000
2.108  0.000000  0.000000  0.000000  -32.60050337893955  5.556393593086356  27.62186175362742  54.242790542760474  3.819323164506289  -11.42418727749884  25.09246168486715  49.492210799882955  -23.497598752439703  18.317697836482502  0.000000
2.139  0.000000  0.000000  0.000000  -32.307571273531686  5.1818784110927405  26.5242354072052  54.29490021744371  3.584832211865329  -11.463040023983146  25.391390526124717  48.439843418316265  -23.634172257597257  18.438972085042856  0.000000
2.17  0.000000  0.000000  0.000000  -32.03509188093979  4.787299556212921  25.329172233650773  54.34539458889544  3.395141542358066  -11.424856647038645  25.662889919539694  47.348860218358354  -23.708312201306544  18.56702847949493  0.000000
2.201  0.000000  0.000000  0.000000  -31.782928857044244  4.372293491588593  24.060446711133952  54.38671580225203  3.2463256430695413  -11.325128184469403  25.90322945767481  46.2273540503626  -23.72965223142168  18.69640202188803  0.000000
2.232  0.000000  0.000000  0.000000  -31.54642780176156  3.9392653500380925  22.73561710837606  54.4108372895076  3.1343485220675014  -11.178267436276844  26.106459046354047  45.0823820956229  -23.703504691927833  18.821871300079632  0.000000
2.263  0.000000  0.000000  0.000000  -31.32266855765094  3.4921261421045204  21.369541798899398  54.410727869014636  3.057346058667487  -10.993641812991864  26.26803523252223  43.91736022472112  -23.62991509488293  18.93907214214988  0.000000
